<svg id="Names" xmlns="http://www.w3.org/2000/svg" viewBox="0 0 594.7 594.7">
  <defs>
    <style>
      .cls-1 {
        fill: #0d47a1;
      }

      .cls-2 {
        fill: #1565c0;
      }

      .cls-3 {
        fill: #9a9d9e;
      }
    </style>
  </defs>
  <title>alttrader_icon</title>
  <g>
    <path class="cls-1" d="M370.48,711.62A296.12,296.12,0,0,0,500,741.25c7.33,0,14.6-.28,21.8-.8C390.47,730.17,286.9,621.14,285.24,487.57a259.88,259.88,0,0,0-1.89,31.25A256.28,256.28,0,0,0,370.48,711.62Z" transform="translate(-202.65 -146.55)"/>
    <path class="cls-1" d="M797.35,443.9c0-164.23-133.13-297.35-297.35-297.35S202.65,279.67,202.65,443.9c0,.38,0,.77,0,1.15C219.24,296.53,345.2,181,498.14,181c137.83,0,253.74,93.79,287.44,221a255.39,255.39,0,0,1,11.61,51.23C797.28,450.17,797.35,447,797.35,443.9Z" transform="translate(-202.65 -146.55)"/>
    <path class="cls-2" d="M498.14,181c-152.94,0-278.9,115.49-295.48,264,.45,117.31,68.82,218.59,167.82,266.57a256.28,256.28,0,0,1-87.13-192.8,259.88,259.88,0,0,1,1.89-31.25c0-1.09,0-2.17,0-3.25,0-141.9,115-256.93,256.93-256.93,113.12,0,209.16,73.12,243.45,174.67C751.88,274.83,636,181,498.14,181Z" transform="translate(-202.65 -146.55)"/>
  </g>
  <g>
    <path class="cls-3" d="M578.72,616.37H519.41V589.49H620.24a12.88,12.88,0,1,0,0-25.76H519.41V536.85H682.08a12.89,12.89,0,1,0,0-25.77H519.41V470H772.17a165.09,165.09,0,0,0-3.46-34.42A230.16,230.16,0,0,0,737,358.77H347.45A230.25,230.25,0,0,0,310.86,470h109v211a228.76,228.76,0,0,0,99.54,34v-72.8h59.31a12.88,12.88,0,1,0,0-25.76Z" transform="translate(-202.65 -146.55)"/>
    <path class="cls-3" d="M685.26,616.37H625.13a12.88,12.88,0,0,0,0,25.76h60.13a12.88,12.88,0,0,0,0-25.76Z" transform="translate(-202.65 -146.55)"/>
  </g>
</svg>

